<svg xmlns="http://www.w3.org/2000/svg" viewBox="0 0 500 560" font-family="'Jost', 'Helvetica Neue', sans-serif">
  <defs>
    <style>
      .wall { stroke: #c9a76b; stroke-width: 2; fill: none; stroke-dasharray: 8,4; }
      .wall-solid { stroke: #c9a76b; stroke-width: 2.5; fill: none; }
      .dim { font-size: 11px; fill: #8a7e6f; }
      .dim-line { stroke: #8a7e6f; stroke-width: 0.7; stroke-dasharray: 3,2; }
      .table { fill: #d4cfc6; stroke: #a09888; stroke-width: 1; rx: 3; }
      .chair { fill: none; stroke: #a09888; stroke-width: 0.8; }
      .hightop { fill: #b8b0a4; stroke: #a09888; stroke-width: 0.8; }
      .label { font-size: 28px; font-weight: 300; fill: #1a1714; }
      .sublabel { font-size: 12px; fill: #8a7e6f; }
      .config-label { font-size: 13px; fill: #c9a76b; font-weight: 500; letter-spacing: 0.1em; }
      .door { stroke: #8a7e6f; stroke-width: 1; fill: none; stroke-dasharray: 2,2; }
      .service { fill: #b8b0a4; stroke: #a09888; stroke-width: 1; }
    </style>
  </defs>

  <!-- Background -->
  <rect width="500" height="560" fill="#f4ede0" rx="8"/>

  <!-- Room outline - wedge shape -->
  <!-- Points: top-left(60,60) top-right(440,60) right-upper(440,240) right-lower(440,380) bottom-right(300,440) bottom-left(60,440) -->
  <!-- The Great Hall is a wedge narrowing from 35'5" at top to 19'0" at bottom, 45'1" tall, with angled right wall -->
  <path d="M 60,80 L 400,80 L 440,80 L 440,260 L 440,400 L 300,440 L 60,440 Z" class="wall"/>

  <!-- Curved entrance bottom-left -->
  <path d="M 60,440 Q 60,400 90,390" class="door"/>

  <!-- Service corridor right side (narrow strip) -->
  <rect x="420" y="260" width="20" height="180" class="service" opacity="0.3"/>

  <!-- Dimension lines -->
  <!-- Top: 35'5" -->
  <line x1="60" y1="55" x2="440" y2="55" class="dim-line"/>
  <text x="250" y="50" text-anchor="middle" class="dim">35' 5"</text>

  <!-- Right upper: 26'0" -->
  <line x1="460" y1="80" x2="460" y2="260" class="dim-line"/>
  <text x="472" y="175" class="dim" transform="rotate(90,472,175)" text-anchor="middle">26' 0"</text>

  <!-- Left: 45'1" -->
  <line x1="40" y1="80" x2="40" y2="440" class="dim-line"/>
  <text x="32" y="260" class="dim" transform="rotate(-90,32,260)" text-anchor="middle">45' 1"</text>

  <!-- Bottom: 19'0" -->
  <line x1="200" y1="460" x2="300" y2="460" class="dim-line"/>
  <text x="250" y="475" text-anchor="middle" class="dim">19' 0"</text>

  <!-- Right lower: 14'8" -->
  <line x1="460" y1="300" x2="460" y2="400" class="dim-line"/>
  <text x="472" y="355" class="dim" transform="rotate(90,472,355)" text-anchor="middle">14' 8"</text>

  <!-- Row 1 (top) - 3 tables -->
  <g transform="translate(130,110)">
    <rect x="0" y="0" width="60" height="30" class="table"/>
    <!-- Chairs top -->
    <ellipse cx="10" cy="-8" rx="7" ry="5" class="chair"/><ellipse cx="30" cy="-8" rx="7" ry="5" class="chair"/><ellipse cx="50" cy="-8" rx="7" ry="5" class="chair"/>
    <!-- Chairs bottom -->
    <ellipse cx="10" cy="38" rx="7" ry="5" class="chair"/><ellipse cx="30" cy="38" rx="7" ry="5" class="chair"/><ellipse cx="50" cy="38" rx="7" ry="5" class="chair"/>
    <!-- Chairs sides -->
    <ellipse cx="-8" cy="15" rx="5" ry="7" class="chair"/><ellipse cx="68" cy="15" rx="5" ry="7" class="chair"/>
  </g>

  <g transform="translate(230,110)">
    <rect x="0" y="0" width="60" height="30" class="table"/>
    <ellipse cx="10" cy="-8" rx="7" ry="5" class="chair"/><ellipse cx="30" cy="-8" rx="7" ry="5" class="chair"/><ellipse cx="50" cy="-8" rx="7" ry="5" class="chair"/>
    <ellipse cx="10" cy="38" rx="7" ry="5" class="chair"/><ellipse cx="30" cy="38" rx="7" ry="5" class="chair"/><ellipse cx="50" cy="38" rx="7" ry="5" class="chair"/>
    <ellipse cx="-8" cy="15" rx="5" ry="7" class="chair"/><ellipse cx="68" cy="15" rx="5" ry="7" class="chair"/>
  </g>

  <g transform="translate(330,110)">
    <rect x="0" y="0" width="60" height="30" class="table"/>
    <ellipse cx="10" cy="-8" rx="7" ry="5" class="chair"/><ellipse cx="30" cy="-8" rx="7" ry="5" class="chair"/><ellipse cx="50" cy="-8" rx="7" ry="5" class="chair"/>
    <ellipse cx="10" cy="38" rx="7" ry="5" class="chair"/><ellipse cx="30" cy="38" rx="7" ry="5" class="chair"/><ellipse cx="50" cy="38" rx="7" ry="5" class="chair"/>
    <ellipse cx="-8" cy="15" rx="5" ry="7" class="chair"/><ellipse cx="68" cy="15" rx="5" ry="7" class="chair"/>
  </g>

  <!-- High-tops between row 1 and 2 -->
  <rect x="105" y="185" width="10" height="10" class="hightop" rx="2"/>
  <rect x="250" y="185" width="10" height="10" class="hightop" rx="2"/>
  <rect x="395" y="185" width="10" height="10" class="hightop" rx="2"/>

  <!-- Row 2 (middle) - 3 tables -->
  <g transform="translate(130,220)">
    <rect x="0" y="0" width="60" height="30" class="table"/>
    <ellipse cx="10" cy="-8" rx="7" ry="5" class="chair"/><ellipse cx="30" cy="-8" rx="7" ry="5" class="chair"/><ellipse cx="50" cy="-8" rx="7" ry="5" class="chair"/>
    <ellipse cx="10" cy="38" rx="7" ry="5" class="chair"/><ellipse cx="30" cy="38" rx="7" ry="5" class="chair"/><ellipse cx="50" cy="38" rx="7" ry="5" class="chair"/>
    <ellipse cx="-8" cy="15" rx="5" ry="7" class="chair"/><ellipse cx="68" cy="15" rx="5" ry="7" class="chair"/>
  </g>

  <g transform="translate(230,220)">
    <rect x="0" y="0" width="60" height="30" class="table"/>
    <ellipse cx="10" cy="-8" rx="7" ry="5" class="chair"/><ellipse cx="30" cy="-8" rx="7" ry="5" class="chair"/><ellipse cx="50" cy="-8" rx="7" ry="5" class="chair"/>
    <ellipse cx="10" cy="38" rx="7" ry="5" class="chair"/><ellipse cx="30" cy="38" rx="7" ry="5" class="chair"/><ellipse cx="50" cy="38" rx="7" ry="5" class="chair"/>
    <ellipse cx="-8" cy="15" rx="5" ry="7" class="chair"/><ellipse cx="68" cy="15" rx="5" ry="7" class="chair"/>
  </g>

  <g transform="translate(330,220)">
    <rect x="0" y="0" width="60" height="30" class="table"/>
    <ellipse cx="10" cy="-8" rx="7" ry="5" class="chair"/><ellipse cx="30" cy="-8" rx="7" ry="5" class="chair"/><ellipse cx="50" cy="-8" rx="7" ry="5" class="chair"/>
    <ellipse cx="10" cy="38" rx="7" ry="5" class="chair"/><ellipse cx="30" cy="38" rx="7" ry="5" class="chair"/><ellipse cx="50" cy="38" rx="7" ry="5" class="chair"/>
    <ellipse cx="-8" cy="15" rx="5" ry="7" class="chair"/><ellipse cx="68" cy="15" rx="5" ry="7" class="chair"/>
  </g>

  <!-- High-tops between row 2 and 3 -->
  <rect x="95" y="295" width="10" height="10" class="hightop" rx="2"/>
  <rect x="395" y="295" width="10" height="10" class="hightop" rx="2"/>

  <!-- Row 3 (bottom) - 3 tables (shifted left due to wedge narrowing) -->
  <g transform="translate(120,330)">
    <rect x="0" y="0" width="60" height="30" class="table"/>
    <ellipse cx="10" cy="-8" rx="7" ry="5" class="chair"/><ellipse cx="30" cy="-8" rx="7" ry="5" class="chair"/><ellipse cx="50" cy="-8" rx="7" ry="5" class="chair"/>
    <ellipse cx="10" cy="38" rx="7" ry="5" class="chair"/><ellipse cx="30" cy="38" rx="7" ry="5" class="chair"/><ellipse cx="50" cy="38" rx="7" ry="5" class="chair"/>
    <ellipse cx="-8" cy="15" rx="5" ry="7" class="chair"/><ellipse cx="68" cy="15" rx="5" ry="7" class="chair"/>
  </g>

  <g transform="translate(220,330)">
    <rect x="0" y="0" width="60" height="30" class="table"/>
    <ellipse cx="10" cy="-8" rx="7" ry="5" class="chair"/><ellipse cx="30" cy="-8" rx="7" ry="5" class="chair"/><ellipse cx="50" cy="-8" rx="7" ry="5" class="chair"/>
    <ellipse cx="10" cy="38" rx="7" ry="5" class="chair"/><ellipse cx="30" cy="38" rx="7" ry="5" class="chair"/><ellipse cx="50" cy="38" rx="7" ry="5" class="chair"/>
    <ellipse cx="-8" cy="15" rx="5" ry="7" class="chair"/><ellipse cx="68" cy="15" rx="5" ry="7" class="chair"/>
  </g>

  <g transform="translate(320,330)">
    <rect x="0" y="0" width="60" height="30" class="table"/>
    <ellipse cx="10" cy="-8" rx="7" ry="5" class="chair"/><ellipse cx="30" cy="-8" rx="7" ry="5" class="chair"/><ellipse cx="50" cy="-8" rx="7" ry="5" class="chair"/>
    <ellipse cx="10" cy="38" rx="7" ry="5" class="chair"/><ellipse cx="30" cy="38" rx="7" ry="5" class="chair"/><ellipse cx="50" cy="38" rx="7" ry="5" class="chair"/>
    <ellipse cx="-8" cy="15" rx="5" ry="7" class="chair"/><ellipse cx="68" cy="15" rx="5" ry="7" class="chair"/>
  </g>

  <!-- Room label -->
  <text x="80" y="510" class="label">The Great Hall</text>
  <text x="80" y="528" class="config-label">FULL BANQUET — 90-108 GUESTS</text>
</svg>
