<svg xmlns="http://www.w3.org/2000/svg" style="display:none">

  <!-- 5-pointed star (ratings) -->
  <symbol id="icon-star" viewBox="0 0 24 24">
    <path d="M12 2l2.9 6.26L22 9.27l-5 5.14L18.18 22 12 18.56 5.82 22 7 14.41 2 9.27l7.1-1.01z" fill="currentColor" stroke="none"/>
  </symbol>

  <!-- Heart outline (Instagram overlay) -->
  <symbol id="icon-heart" viewBox="0 0 24 24">
    <path d="M12 21.35l-1.45-1.32C5.4 15.36 2 12.28 2 8.5 2 5.42 4.42 3 7.5 3c1.74 0 3.41.81 4.5 2.09C13.09 3.81 14.76 3 16.5 3 19.58 3 22 5.42 22 8.5c0 3.78-3.4 6.86-8.55 11.54z" fill="none" stroke="currentColor" stroke-width="1.5" stroke-linejoin="round"/>
  </symbol>

  <!-- Expand / fullscreen arrows -->
  <symbol id="icon-expand" viewBox="0 0 24 24">
    <path d="M15 3h6v6M9 21H3v-6M21 3l-7 7M3 21l7-7" fill="none" stroke="currentColor" stroke-width="1.5" stroke-linecap="round" stroke-linejoin="round"/>
  </symbol>

  <!-- Classical columns (historic) -->
  <symbol id="icon-columns" viewBox="0 0 24 24">
    <path d="M4 3h16v2H4zM4 19h16v2H4zM6 5v14M10 5v14M14 5v14M18 5v14" fill="none" stroke="currentColor" stroke-width="1.5" stroke-linecap="round"/>
  </symbol>

  <!-- Botanical leaf / sprig (cuisine) -->
  <symbol id="icon-leaf" viewBox="0 0 24 24">
    <path d="M12 22c-4-4-8-8.5-8-13a8 8 0 0116 0c0 4.5-4 9-8 13z" fill="none" stroke="currentColor" stroke-width="1.5" stroke-linejoin="round"/>
    <path d="M12 22V9M8 13c2-1 3-3 4-4M16 13c-2-1-3-3-4-4" fill="none" stroke="currentColor" stroke-width="1.5" stroke-linecap="round"/>
  </symbol>

  <!-- Venue / six spaces under one roof -->
  <symbol id="icon-venue" viewBox="0 0 24 24">
    <path d="M3 21V10l9-7 9 7v11" fill="none" stroke="currentColor" stroke-width="1.5" stroke-linecap="round" stroke-linejoin="round"/>
    <path d="M9 21v-6h6v6" fill="none" stroke="currentColor" stroke-width="1.5" stroke-linejoin="round"/>
    <line x1="3" y1="21" x2="21" y2="21" stroke="currentColor" stroke-width="1.5" stroke-linecap="round"/>
  </symbol>

  <!-- Map pin / location -->
  <symbol id="icon-pin" viewBox="0 0 24 24">
    <path d="M12 2C8.13 2 5 5.13 5 9c0 5.25 7 13 7 13s7-7.75 7-13c0-3.87-3.13-7-7-7z" fill="none" stroke="currentColor" stroke-width="1.5" stroke-linejoin="round"/>
    <circle cx="12" cy="9" r="2.5" fill="none" stroke="currentColor" stroke-width="1.5"/>
  </symbol>

  <!-- Arrow right (CTAs) -->
  <symbol id="icon-arrow-right" viewBox="0 0 24 24">
    <path d="M5 12h14M13 6l6 6-6 6" fill="none" stroke="currentColor" stroke-width="1.5" stroke-linecap="round" stroke-linejoin="round"/>
  </symbol>

  <!-- Arrow up (back to top) -->
  <symbol id="icon-arrow-up" viewBox="0 0 24 24">
    <path d="M12 19V5M6 11l6-6 6 6" fill="none" stroke="currentColor" stroke-width="1.5" stroke-linecap="round" stroke-linejoin="round"/>
  </symbol>

</svg>
